<?xml version="1.0" encoding="UTF-8" standalone="no"?>
<!-- Uploaded to: SVG Repo, www.svgrepo.com, Generator: SVG Repo Mixer Tools -->

<svg
   width="666.66663"
   height="666.66663"
   viewBox="0 0 19.999999 19.999999"
   fill="none"
   version="1.1"
   id="svg1"
   sodipodi:docname="email.svg"
   inkscape:version="1.3 (0e150ed6c4, 2023-07-21)"
   xmlns:inkscape="http://www.inkscape.org/namespaces/inkscape"
   xmlns:sodipodi="http://sodipodi.sourceforge.net/DTD/sodipodi-0.dtd"
   xmlns="http://www.w3.org/2000/svg"
   xmlns:svg="http://www.w3.org/2000/svg">
  <defs
     id="defs1" />
  <sodipodi:namedview
     id="namedview1"
     pagecolor="#ffffff"
     bordercolor="#000000"
     borderopacity="0.25"
     inkscape:showpageshadow="2"
     inkscape:pageopacity="0.0"
     inkscape:pagecheckerboard="0"
     inkscape:deskcolor="#d1d1d1"
     inkscape:zoom="1.2195001"
     inkscape:cx="334.15331"
     inkscape:cy="333.33331"
     inkscape:window-width="1920"
     inkscape:window-height="1009"
     inkscape:window-x="1912"
     inkscape:window-y="-8"
     inkscape:window-maximized="1"
     inkscape:current-layer="svg1" />
  <path
     fill-rule="evenodd"
     clip-rule="evenodd"
     d="M 20,10 C 20,15.5228 15.5228,20 10,20 4.4771501,20 1.1920929e-7,15.5228 1.1920929e-7,10 1.1920929e-7,4.4771501 4.4771501,1.1920929e-7 10,1.1920929e-7 15.5228,1.1920929e-7 20,4.4771501 20,10 Z M 5.0050001,7.0000001 c 0,-0.55 0.445,-1 0.995,-1 H 14 c 0.55,0 1,0.45 1,1 V 13 c 0,0.55 -0.45,1 -1,1 H 6.0000001 c -0.55,0 -1,-0.45 -1,-1 z M 10,10.5 6.0000101,7.9999701 V 13 H 14 V 7.9999701 Z M 10,9.5000001 6.0000101,7.0000101 H 14 Z"
     fill="#000000"
     id="path1"
     style="fill:#155dfc;fill-opacity:1"
     inkscape:export-filename="email.png"
     inkscape:export-xdpi="96"
     inkscape:export-ydpi="96" />
</svg>
