<?xml version="1.0" encoding="UTF-8" standalone="no"?>
<!-- Uploaded to: SVG Repo, www.svgrepo.com, Generator: SVG Repo Mixer Tools -->

<svg
   fill="#000000"
   height="800"
   width="800"
   version="1.1"
   id="Layer_1"
   viewBox="-143 145 512 512"
   xml:space="preserve"
   sodipodi:docname="linkedin.svg"
   inkscape:version="1.3 (0e150ed6c4, 2023-07-21)"
   xmlns:inkscape="http://www.inkscape.org/namespaces/inkscape"
   xmlns:sodipodi="http://sodipodi.sourceforge.net/DTD/sodipodi-0.dtd"
   xmlns="http://www.w3.org/2000/svg"
   xmlns:svg="http://www.w3.org/2000/svg"><defs
   id="defs1" /><sodipodi:namedview
   id="namedview1"
   pagecolor="#ffffff"
   bordercolor="#000000"
   borderopacity="0.25"
   inkscape:showpageshadow="2"
   inkscape:pageopacity="0.0"
   inkscape:pagecheckerboard="0"
   inkscape:deskcolor="#d1d1d1"
   inkscape:zoom="1.01625"
   inkscape:cx="400"
   inkscape:cy="400"
   inkscape:window-width="1920"
   inkscape:window-height="1009"
   inkscape:window-x="1912"
   inkscape:window-y="-8"
   inkscape:window-maximized="1"
   inkscape:current-layer="Layer_1" />&#10;<path
   d="m 113,145 c -141.4,0 -256,114.6 -256,256 0,141.4 114.6,256 256,256 C 254.4,657 369,542.4 369,401 369,259.6 254.4,145 113,145 Z M 41.4,508.1 H -8.5 V 348.4 H 41.4 Z M 15.1,328.4 h -0.4 c -18.1,0 -29.8,-12.2 -29.8,-27.7 0,-15.8 12.1,-27.7 30.5,-27.7 18.4,0 29.7,11.9 30.1,27.7 0.1,15.4 -11.6,27.7 -30.4,27.7 z M 241,508.1 h -56.6 v -82.6 c 0,-21.6 -8.8,-36.4 -28.3,-36.4 -14.9,0 -23.2,10 -27,19.6 -1.4,3.4 -1.2,8.2 -1.2,13.1 v 86.3 H 71.8 c 0,0 0.7,-146.4 0,-159.7 h 56.1 v 25.1 c 3.3,-11 21.2,-26.6 49.8,-26.6 35.5,0 63.3,23 63.3,72.4 z"
   id="path1"
   style="fill:#155dfc;fill-opacity:1" />&#10;</svg>
