<?xml version="1.0" encoding="UTF-8" standalone="no"?>
<!-- Created with Inkscape (http://www.inkscape.org/) -->

<svg
   width="31.999998"
   height="31.999998"
   viewBox="0 0 8.4666661 8.4666661"
   version="1.1"
   id="svg1"
   inkscape:export-filename="bitmap.png"
   inkscape:export-xdpi="96"
   inkscape:export-ydpi="96"
   sodipodi:docname="bitmap.svg"
   inkscape:version="1.3 (0e150ed6c4, 2023-07-21)"
   xmlns:inkscape="http://www.inkscape.org/namespaces/inkscape"
   xmlns:sodipodi="http://sodipodi.sourceforge.net/DTD/sodipodi-0.dtd"
   xmlns="http://www.w3.org/2000/svg"
   xmlns:svg="http://www.w3.org/2000/svg">
  <sodipodi:namedview
     id="namedview1"
     pagecolor="#ffffff"
     bordercolor="#000000"
     borderopacity="0.25"
     inkscape:showpageshadow="2"
     inkscape:pageopacity="0.0"
     inkscape:pagecheckerboard="0"
     inkscape:deskcolor="#d1d1d1"
     inkscape:document-units="mm"
     inkscape:zoom="9.4375006"
     inkscape:cx="19.920529"
     inkscape:cy="23.311257"
     inkscape:window-width="1368"
     inkscape:window-height="842"
     inkscape:window-x="-6"
     inkscape:window-y="-6"
     inkscape:window-maximized="1"
     inkscape:current-layer="layer1" />
  <defs
     id="defs1" />
  <g
     inkscape:label="Layer 1"
     inkscape:groupmode="layer"
     id="layer1">
    <path
       style="font-size:6.3443px;font-family:'Spongeboy Me Bob';-inkscape-font-specification:'Spongeboy Me Bob';fill:#2b7fff;fill-rule:evenodd;stroke:#101828;stroke-width:0.449596;stroke-linejoin:bevel"
       d="m 4.1204772,1.4588468 0.1332303,5.3672777 q -0.5138882,0.069787 -1.0087436,0.1078531 -0.4948554,0.038066 -1.0023994,0.038066 -1.2371385,0 -1.54800914,-0.2030176 Q 0.57401366,6.4962209 0.45981627,5.7475935 0.40271757,5.3669355 0.38368467,5.0750977 0.36465177,4.7832599 0.37734037,4.5865866 L 2.2298759,4.4660449 2.2044987,4.9418674 2.1854658,5.6460847 q 0,0.4250681 0.063443,0.4885111 0.1078531,0.025377 0.2791492,0.057099 0.1712961,0.031722 0.3996909,0.069787 L 3.3147512,2.2582286 Q 2.8389287,2.4104918 2.2869746,2.5056563 1.7413648,2.6008208 1.2465094,2.6198537 L 1.259198,1.4080924 Z M 7.7748,1.1543204 q 0.082476,0.025377 0.1015088,0.1205417 0.025377,0.095165 0.025377,0.3616251 0,0.2347391 -0.00634,0.4567896 -0.00634,0.2220505 -0.00634,0.4948554 0,0.1078531 -0.00634,0.2093619 -0.00634,0.095164 0.00634,0.1332303 L 7.203813,2.9053472 q 0,-0.057099 0.00634,-0.1586075 0.00634,-0.1015088 0,-0.2093619 Q 7.203813,2.4295247 7.1847801,2.3407045 7.1657472,2.2518843 7.1213371,2.2201628 6.9754182,2.1313426 6.8041221,2.1249983 6.632826,2.1123097 6.4551856,2.1123097 q -0.1395746,0 -0.2918378,0.057099 -0.038066,0.019033 -0.069787,0.317215 -0.031721,0.2918378 -0.031721,0.8818577 0,0.4377567 0,0.8818576 0.00634,0.4377567 0.025377,0.8564805 0.012689,0.2410834 0.019033,0.4885111 0.00634,0.2474277 0.025377,0.4885111 0.2854935,0.1332303 0.8437919,0.1332303 0.076132,0 0.1459189,-0.00634 0.076132,-0.00634 0.1586075,-0.038066 l 0.031721,-0.6090528 q 0,-0.1078531 -0.012689,-0.190329 -0.00634,-0.08882 -0.050754,-0.1078531 -0.095165,-0.04441 -0.2030176,-0.031721 -0.1078531,0.00634 -0.2157062,0.019033 -0.038066,-0.126886 -0.050754,-0.2664606 -0.012689,-0.1395746 -0.012689,-0.2981821 0,-0.253772 0.038066,-0.4821668 L 8.4028856,4.0726984 8.5043944,6.7753701 q -0.361625,0.050754 -0.6915286,0.069787 -0.3235593,0.025377 -0.6661515,0.025377 -1.8652242,0 -2.5377199,-0.3616251 -0.082476,-0.04441 -0.082476,-0.5900199 0,-0.5646427 0.1141974,-2.1253404 l 0.095165,-1.9540444 q 0,-0.1839847 -0.012689,-0.317215 -0.00634,-0.1395746 -0.025377,-0.1776404 0.5709869,-0.2410833 2.4044896,-0.2410833 0.1649518,0 0.3362479,0 0.1776404,0 0.3362479,0.050754 z"
       id="text2"
       transform="scale(0.95381222,1.0484244)"
       aria-label="JG" />
  </g>
</svg>
